<?xml version="1.0" encoding="utf-8"?>
<!-- Generator: Adobe Illustrator 27.2.0, SVG Export Plug-In . SVG Version: 6.00 Build 0)  -->
<svg version="1.1" id="レイヤー_1" xmlns="http://www.w3.org/2000/svg" xmlns:xlink="http://www.w3.org/1999/xlink" x="0px"
	 y="0px" viewBox="0 0 114 172" style="enable-background:new 0 0 114 172;" xml:space="preserve">
<style type="text/css">
	.st0{fill-rule:evenodd;clip-rule:evenodd;fill:#FFFFFF;}
</style>
<g id="Tile">
	<g id="Scrapbox" transform="translate(-543.000000, -194.000000)">
		<g id="S-icon" transform="translate(543.000000, 194.000000)">
			<g id="sb-icon">
				<g id="Mask">
					<path id="path-1_00000004541864183832281120000001534967547614910879_" class="st0" d="M51.9,1.1L5.1,25
						C2.3,26.5,0,30.2,0,33.4v46.9c0,3.2,2.3,6.9,5.1,8.3l48.9,25c1.7,0.9,1.7,2.3,0,3.1l-48.9,25c-2.8,1.4-2.8,3.8,0,5.2l46.8,24
						c2.8,1.4,7.4,1.4,10.2,0l46.8-24c2.8-1.4,5.1-5.2,5.1-8.3V91.7c0-3.2-2.3-6.9-5.1-8.3L60,58.4c-1.7-0.9-1.7-2.3,0-3.1l48.9-25
						c2.8-1.4,2.8-3.8,0-5.2l-46.8-24C59.3-0.4,54.7-0.4,51.9,1.1z"/>
				</g>
			</g>
		</g>
	</g>
</g>
</svg>
